<svg width="448" height="116" viewBox="0 0 448 116" fill="none" xmlns="http://www.w3.org/2000/svg">
<rect x="194" width="244" height="106" rx="5" fill="#3DD8AD"/>
<path d="M204 13C204 10.2386 206.239 8 209 8H443C445.761 8 448 10.2386 448 13V109C448 111.761 445.761 114 443 114H209C206.239 114 204 111.761 204 109V13Z" fill="#51925A"/>
<line x1="231" y1="44.5" x2="402" y2="44.5" stroke="white" stroke-width="3"/>
<line x1="231" y1="58.5" x2="402" y2="58.5" stroke="white" stroke-width="3"/>
<line x1="231" y1="72.5" x2="327" y2="72.5" stroke="white" stroke-width="3"/>
<path d="M75.4209 64.8477L22.6611 104.926H1.74316C1.74316 110.168 6.42577 114.418 12.2021 114.418H85.8799L75.4209 64.8477Z" fill="#C4F3FF"/>
<path d="M75.4209 64.8477V104.926C75.4209 110.168 80.1035 114.418 85.8799 114.418H92.8525V64.8477H75.4209Z" fill="#ACD2F6"/>
<path d="M89.3662 15.9102V113.876C90.457 114.226 91.6298 114.418 92.8525 114.418C98.6289 114.418 103.312 110.168 103.312 104.926V9.58203H96.3389L89.3662 15.9102Z" fill="#C4F3FF"/>
<path d="M22.6611 9.58203V104.926H82.3936C82.3936 109.058 85.3044 112.572 89.3662 113.876C93.428 112.572 96.3389 109.058 96.3389 104.926V9.58203H22.6611Z" fill="white"/>
<path d="M110.284 85.9414H103.312L96.3389 92.2695L103.312 98.5977H110.284C114.135 98.5977 117.257 95.7646 117.257 92.2695C117.257 88.7745 114.135 85.9414 110.284 85.9414Z" fill="#FF336D"/>
<path d="M8.71582 88.4248L4.55454 89.1658C2.95246 89.4514 1.74316 90.7318 1.74316 92.2695C1.74316 93.8073 2.95246 95.0877 4.55454 95.3731L8.71582 96.1141L13.3643 92.2693L8.71582 88.4248Z" fill="#4E4CD3"/>
<path d="M22.6611 85.9414L8.71582 88.4248V96.1143L22.6611 98.5977L29.6338 92.2695L22.6611 85.9414Z" fill="#FFE7B5"/>
<path d="M96.3389 85.9414L89.3662 92.2695L96.3389 98.5977H103.312V85.9414H96.3389Z" fill="white"/>
<path d="M22.6611 92.2695V98.5977H96.3389V92.2695L59.5 88.0508L22.6611 92.2695Z" fill="#FFB44E"/>
<path d="M22.6611 85.9414H96.3389V92.2695H22.6611V85.9414Z" fill="#FFD06A"/>
<path d="M77.6744 45.7163C78.0149 46.0251 78.4612 46.1797 78.9072 46.1797C79.3532 46.1797 79.7994 46.0253 80.1399 45.7163L87.1126 39.3881C87.7934 38.7703 87.7934 37.7686 87.1126 37.1509C86.4316 36.5331 85.3281 36.5331 84.6473 37.1509L78.9072 42.3605L76.6536 40.315C75.9726 39.6972 74.8691 39.6972 74.1883 40.315C73.5075 40.9328 73.5075 41.9346 74.1883 42.5522L77.6744 45.7163Z" fill="black"/>
<path d="M77.6744 33.06C78.0149 33.3688 78.4612 33.5234 78.9072 33.5234C79.3532 33.5234 79.7994 33.369 80.1399 33.06L87.1126 26.7319C87.7934 26.1141 87.7934 25.1123 87.1126 24.4947C86.4316 23.8769 85.3281 23.8769 84.6473 24.4947L78.9072 29.7042L76.6536 27.6588C75.9726 27.0409 74.8691 27.0409 74.1883 27.6588C73.5075 28.2766 73.5075 29.2783 74.1883 29.896L77.6744 33.06Z" fill="black"/>
<path d="M40.0928 43.0156H68.4482C69.4112 43.0156 70.1914 42.3073 70.1914 41.4336C70.1914 40.5599 69.4112 39.8516 68.4482 39.8516H40.0928C39.1298 39.8516 38.3496 40.5599 38.3496 41.4336C38.3496 42.3073 39.1298 43.0156 40.0928 43.0156Z" fill="black"/>
<path d="M77.6744 58.3725C78.0149 58.6813 78.4612 58.8359 78.9072 58.8359C79.3532 58.8359 79.7994 58.6815 80.1399 58.3725L87.1126 52.0444C87.7934 51.4266 87.7934 50.4248 87.1126 49.8072C86.4316 49.1894 85.3281 49.1894 84.6473 49.8072L78.9072 55.0167L76.6536 52.9713C75.9726 52.3534 74.8691 52.3534 74.1883 52.9713C73.5075 53.5891 73.5075 54.5908 74.1883 55.2085L77.6744 58.3725Z" fill="black"/>
<path d="M77.6744 71.0288C78.0149 71.3376 78.4612 71.4922 78.9072 71.4922C79.3532 71.4922 79.7994 71.3378 80.1399 71.0288L87.1126 64.7006C87.7934 64.0828 87.7934 63.0811 87.1126 62.4634C86.4316 61.8456 85.3281 61.8456 84.6473 62.4634L78.9072 67.673L76.6536 65.6275C75.9726 65.0097 74.8691 65.0097 74.1883 65.6275C73.5075 66.2453 73.5075 67.2471 74.1883 67.8647L77.6744 71.0288Z" fill="black"/>
<path d="M40.0928 30.3594H68.4482C69.4112 30.3594 70.1914 29.651 70.1914 28.7773C70.1914 27.9036 69.4112 27.1953 68.4482 27.1953H40.0928C39.1298 27.1953 38.3496 27.9036 38.3496 28.7773C38.3496 29.651 39.1298 30.3594 40.0928 30.3594Z" fill="black"/>
<path d="M40.0928 55.6719H68.4482C69.4112 55.6719 70.1914 54.9635 70.1914 54.0898C70.1914 53.2161 69.4112 52.5078 68.4482 52.5078H40.0928C39.1298 52.5078 38.3496 53.2161 38.3496 54.0898C38.3496 54.9635 39.1298 55.6719 40.0928 55.6719Z" fill="black"/>
<path d="M40.0928 68.3281H68.4482C69.4112 68.3281 70.1914 67.6198 70.1914 66.7461C70.1914 65.8724 69.4112 65.1641 68.4482 65.1641H40.0928C39.1298 65.1641 38.3496 65.8724 38.3496 66.7461C38.3496 67.6198 39.1298 68.3281 40.0928 68.3281Z" fill="black"/>
<path d="M110.284 84.3594H105.055V9.58203C105.055 8.70833 104.274 8 103.312 8H22.6611C21.6982 8 20.918 8.70833 20.918 9.58203V84.6395L4.21869 87.6135C1.77431 88.0491 0 90.0072 0 92.2695C0 94.5318 1.77431 96.49 4.21869 96.9256L22.3253 100.15C22.4359 100.17 22.5484 100.18 22.6609 100.18H101.568V104.926C101.568 109.288 97.6586 112.836 92.8525 112.836C88.0465 112.836 84.1367 109.288 84.1367 104.926C84.1367 104.052 83.3565 103.344 82.3936 103.344H1.74316C0.78024 103.344 0 104.052 0 104.926C0 111.032 5.474 116 12.2021 116H92.8525C99.5807 116 105.055 111.032 105.055 104.926V100.18H110.284C115.09 100.18 119 96.6313 119 92.2695C119 87.9078 115.09 84.3594 110.284 84.3594ZM12.2021 112.836C7.99322 112.836 4.47133 110.114 3.66134 106.508H80.7745C81.1643 108.97 82.4498 111.173 84.321 112.836H12.2021ZM101.568 11.1641V84.3594H24.4043V11.1641H101.568ZM24.4043 93.8516H94.5957V97.0156H24.4043V93.8516ZM94.5957 90.6875H24.4043V87.5234H94.5957V90.6875ZM20.918 96.675L10.459 94.8124V89.7265L20.918 87.8639V96.675ZM3.48633 92.2695C3.48633 91.5156 4.07668 90.8632 4.89016 90.7183L6.97266 90.3475V94.1916L4.89016 93.8208C4.07668 93.6758 3.48633 93.0234 3.48633 92.2695ZM98.082 97.0156V87.5234H101.568V97.0156H98.082ZM110.284 97.0156H105.055V87.5234H110.284C113.168 87.5234 115.514 89.6524 115.514 92.2695C115.514 94.8866 113.168 97.0156 110.284 97.0156Z" fill="black"/>
</svg>
