<svg width="393" height="114" viewBox="0 0 393 114" fill="none" xmlns="http://www.w3.org/2000/svg">
<rect width="244" height="106" rx="5" fill="#FFA500"/>
<path d="M10 13C10 10.2386 12.2386 8 15 8H249C251.761 8 254 10.2386 254 13V109C254 111.761 251.761 114 249 114H15C12.2386 114 10 111.761 10 109V13Z" fill="#EE7600"/>
<path d="M107.333 61.3333C107.333 63.9107 105.244 66 102.667 66C100.089 66 98 63.9107 98 61.3333C98 58.756 100.089 56.6667 102.667 56.6667C105.244 56.6667 107.333 58.756 107.333 61.3333Z" fill="white"/>
<path d="M136.667 61.3333C136.667 63.9107 134.577 66 132 66C129.423 66 127.333 63.9107 127.333 61.3333C127.333 58.756 129.423 56.6667 132 56.6667C134.577 56.6667 136.667 58.756 136.667 61.3333Z" fill="white"/>
<path d="M166 60.6667C166 63.244 163.911 65.3333 161.333 65.3333C158.756 65.3333 156.667 63.244 156.667 60.6667C156.667 58.0893 158.756 56 161.333 56C163.911 56 166 58.0893 166 60.6667Z" fill="white"/>
<path d="M391.447 13.9746L379.025 23.498L385.236 1.55273H391.447V13.9746Z" fill="#666DDC"/>
<path d="M385.236 13.9746L372.814 17.2871L379.025 1.55273H385.236V13.9746Z" fill="#7D8FE5"/>
<path d="M379.025 13.9746L366.604 20.3926L372.814 1.55273H379.025V13.9746Z" fill="#ACD2F6"/>
<path d="M372.814 17.2871H310.291L307.186 13.9746V1.55273H372.814V17.2871Z" fill="#C4F3FF"/>
<path d="M391.447 104.447H385.236L372.814 59.2109L385.236 13.9746H391.447V104.447Z" fill="#ACD2F6"/>
<path d="M385.236 104.447H379.025L366.604 59.2109L379.025 13.9746H385.236V104.447Z" fill="#95B0ED"/>
<path d="M307.186 82.709H379.025V104.447H307.186V82.709Z" fill="#ACD2F6"/>
<path d="M354.182 55.7949L307.186 82.709H288.553C288.553 87.8543 292.724 92.0254 297.869 92.0254H363.498L354.182 55.7949Z" fill="#C4F3FF"/>
<path d="M354.182 55.7949V82.709C354.182 87.8543 358.353 92.0254 363.498 92.0254H369.709V55.7949H354.182Z" fill="#ACD2F6"/>
<path d="M372.814 13.9746L366.604 91.4931C367.575 91.8366 368.62 92.0254 369.709 92.0254C374.854 92.0254 379.025 87.8543 379.025 82.709V13.9746H372.814Z" fill="#C4F3FF"/>
<path d="M372.814 13.9746H307.186V82.709H360.393C360.393 86.7651 362.985 90.2139 366.604 91.4931C370.222 90.2139 372.814 86.7651 372.814 82.709V76.498V20.1855V13.9746Z" fill="white"/>
<path d="M307.186 21.7383H379.025V24.8438H307.186V21.7383Z" fill="#FF545A"/>
<path d="M313.396 9.31641C314.254 9.31641 314.949 8.62122 314.949 7.76367C314.949 6.90612 314.254 6.21094 313.396 6.21094C312.539 6.21094 311.844 6.90612 311.844 7.76367C311.844 8.62122 312.539 9.31641 313.396 9.31641Z" fill="black"/>
<path d="M372.814 9.31641C373.672 9.31641 374.367 8.62122 374.367 7.76367C374.367 6.90612 373.672 6.21094 372.814 6.21094C371.957 6.21094 371.262 6.90612 371.262 7.76367C371.262 8.62122 371.957 9.31641 372.814 9.31641Z" fill="black"/>
<path d="M333.203 9.31641C334.06 9.31641 334.755 8.62122 334.755 7.76367C334.755 6.90612 334.06 6.21094 333.203 6.21094C332.345 6.21094 331.65 6.90612 331.65 7.76367C331.65 8.62122 332.345 9.31641 333.203 9.31641Z" fill="black"/>
<path d="M353.25 9.30766C354.096 9.17045 354.671 8.37307 354.534 7.52667C354.397 6.68027 353.599 6.10535 352.753 6.24256C351.906 6.37977 351.331 7.17714 351.469 8.02355C351.606 8.86995 352.403 9.44486 353.25 9.30766Z" fill="black"/>
<path d="M391.447 0H307.186C306.328 0 305.633 0.695211 305.633 1.55273V81.1562H288.553C287.695 81.1562 287 81.8515 287 82.709C287 88.7023 291.876 93.5781 297.869 93.5781H369.709C375.702 93.5781 380.578 88.7023 380.578 82.709V15.5273H383.684V102.895H308.738V98.2363C308.738 97.3788 308.043 96.6836 307.186 96.6836C306.328 96.6836 305.633 97.3788 305.633 98.2363V104.447C305.633 105.305 306.328 106 307.186 106H391.447C392.305 106 393 105.305 393 104.447V1.55273C393 0.695211 392.305 0 391.447 0ZM389.895 12.4219H386.789V3.10547H389.895V12.4219ZM377.473 3.10547V12.4219H308.738V3.10547H377.473ZM297.869 90.4727C294.12 90.4727 290.983 87.8009 290.261 84.2617H358.95C359.298 86.6784 360.443 88.8408 362.109 90.4727H297.869ZM377.473 82.709C377.473 86.99 373.99 90.4727 369.709 90.4727C365.428 90.4727 361.945 86.99 361.945 82.709C361.945 81.8515 361.25 81.1562 360.393 81.1562H308.738V15.5273H377.473V82.709ZM380.578 12.4219V3.10547H383.684V12.4219H380.578ZM386.789 102.895V15.5273H389.895V102.895H386.789Z" fill="black"/>
</svg>
