<svg width="391" height="114" viewBox="0 0 391 114" fill="none" xmlns="http://www.w3.org/2000/svg">
<rect x="137" width="244" height="106" rx="5" fill="#3DD8AD"/>
<path d="M147 13C147 10.2386 149.239 8 152 8H386C388.761 8 391 10.2386 391 13V109C391 111.761 388.761 114 386 114H152C149.239 114 147 111.761 147 109V13Z" fill="#51925A"/>
<path d="M244.333 61.3333C244.333 63.9107 242.244 66 239.667 66C237.089 66 235 63.9107 235 61.3333C235 58.756 237.089 56.6667 239.667 56.6667C242.244 56.6667 244.333 58.756 244.333 61.3333Z" fill="white"/>
<path d="M273.667 61.3333C273.667 63.9107 271.577 66 269 66C266.423 66 264.333 63.9107 264.333 61.3333C264.333 58.756 266.423 56.6667 269 56.6667C271.577 56.6667 273.667 58.756 273.667 61.3333Z" fill="white"/>
<path d="M303 60.6667C303 63.244 300.911 65.3333 298.333 65.3333C295.756 65.3333 293.667 63.244 293.667 60.6667C293.667 58.0893 295.756 56 298.333 56C300.911 56 303 58.0893 303 60.6667Z" fill="white"/>
<path d="M95.5791 16.7881L84.2119 25.5029L89.8955 5.61035H95.5791V16.7881Z" fill="#C9139D"/>
<path d="M89.8955 16.7881L78.5283 19.8193L84.2119 5.61035H89.8955V16.7881Z" fill="#FF0787"/>
<path d="M84.2119 16.7881L72.8447 22.6611L78.5283 5.61035H84.2119V16.7881Z" fill="#FF336D"/>
<path d="M78.5283 19.8193H21.3135L18.4717 16.7881V5.61035H78.5283V19.8193Z" fill="#FF545A"/>
<path d="M95.5791 99.5791H89.8955L78.5283 58.1836L89.8955 16.7881H95.5791V99.5791Z" fill="#ACD2F6"/>
<path d="M89.8955 99.5791H84.2119L72.8447 58.1836L84.2119 16.7881H89.8955V99.5791Z" fill="#95B0ED"/>
<path d="M18.4717 79.6865H84.2119V99.5791H18.4717V79.6865Z" fill="#ACD2F6"/>
<path d="M61.4775 55.0576L18.4717 79.6865H1.4209C1.4209 84.395 5.23781 88.2119 9.94629 88.2119H70.0029L61.4775 55.0576Z" fill="#C4F3FF"/>
<path d="M61.4775 55.0576V79.6865C61.4775 84.395 65.2945 88.2119 70.0029 88.2119H75.6865V55.0576H61.4775Z" fill="#ACD2F6"/>
<path d="M78.5283 16.7881L72.8447 87.7248C73.7338 88.0391 74.6898 88.2119 75.6865 88.2119C80.395 88.2119 84.2119 84.395 84.2119 79.6865V16.7881H78.5283Z" fill="#C4F3FF"/>
<path d="M18.4717 16.7881V79.6865H67.1611C67.1611 83.3983 69.5338 86.5542 72.8447 87.7248C76.1556 86.5542 78.5283 83.3983 78.5283 79.6865V74.0029L70.0029 48.2373L78.5283 22.4717V16.7881H18.4717Z" fill="white"/>
<path d="M60.4039 22.4717H42.2797L24.1553 39.6488V56.8258L42.2797 74.0029H60.4039L63.8345 60.077L78.5283 56.8258V39.6488L60.4039 22.4717Z" fill="#95B0ED"/>
<path d="M24.1553 22.4717H42.2797V39.6488H24.1553V22.4717Z" fill="#ACD2F6"/>
<path d="M42.2797 39.6488H60.4041V56.826H42.2797V39.6488Z" fill="#ACD2F6"/>
<path d="M24.1553 56.8258H42.2797V74.0029H24.1553V56.8258Z" fill="#ACD2F6"/>
<path d="M60.4039 22.4717H78.5283V39.6488H60.4039V22.4717Z" fill="#ACD2F6"/>
<path d="M60.4039 56.8258H78.5283V74.0029H60.4039V56.8258Z" fill="#ACD2F6"/>
<path d="M95.5791 4H18.4717C17.687 4 17.0508 4.63618 17.0508 5.4209V78.2656H1.4209C0.636184 78.2656 0 78.9018 0 79.6865C0 85.171 4.46181 89.6328 9.94629 89.6328H75.6865C81.171 89.6328 85.6328 85.171 85.6328 79.6865V18.209H88.4746V98.1582H19.8926V93.8955C19.8926 93.1108 19.2564 92.4746 18.4717 92.4746C17.687 92.4746 17.0508 93.1108 17.0508 93.8955V99.5791C17.0508 100.364 17.687 101 18.4717 101H95.5791C96.3638 101 97 100.364 97 99.5791V5.4209C97 4.63618 96.3638 4 95.5791 4ZM82.791 6.8418V15.3672H19.8926V6.8418H82.791ZM9.94629 86.791C6.51548 86.791 3.6447 84.3461 2.98446 81.1074H65.8414C66.1591 83.3189 67.207 85.2977 68.7323 86.791H9.94629ZM82.791 79.6865C82.791 83.604 79.604 86.791 75.6865 86.791C71.769 86.791 68.582 83.604 68.582 79.6865C68.582 78.9018 67.9458 78.2656 67.1611 78.2656H19.8926V18.209H82.791V79.6865ZM85.6328 6.8418H94.1582V15.3672H85.6328V6.8418ZM91.3164 98.1582V18.209H94.1582V98.1582H91.3164Z" fill="black"/>
<path d="M24.1553 38.2279C23.3706 38.2279 22.7344 38.8641 22.7344 39.6488V74.0029C22.7344 74.7876 23.3706 75.4238 24.1553 75.4238H78.5283C79.313 75.4238 79.9492 74.7876 79.9492 74.0029V22.4717C79.9492 21.687 79.313 21.0508 78.5283 21.0508H24.1553C23.3706 21.0508 22.7344 21.687 22.7344 22.4717V33.9652C22.7344 34.7499 23.3706 35.3861 24.1553 35.3861C24.94 35.3861 25.5762 34.7499 25.5762 33.9652V23.8926H40.8588V38.2279H24.1553ZM40.8588 41.0697V55.4051H25.5762V41.0697H40.8588ZM77.1074 55.4049H61.8248V41.0695H77.1074V55.4049ZM58.983 55.4049H43.7004V41.0695H58.983V55.4049ZM58.983 58.2467V72.582H43.7004V58.2467H58.983ZM25.5762 58.2467H40.8588V72.582H25.5762V58.2467ZM61.8248 72.582V58.2467H77.1074V72.582H61.8248ZM77.1074 38.2279H61.8248V23.8926H77.1074V38.2279ZM43.7006 23.8926H58.9832V38.2279H43.7006V23.8926Z" fill="black"/>
</svg>
