<svg width="109" height="109" viewBox="0 0 109 109" fill="none" xmlns="http://www.w3.org/2000/svg">
<path d="M72.2764 72.2764L104.597 75.8572L75.8572 104.597L72.2764 72.2764Z" fill="#FF9733"/>
<path d="M101.017 1.59668L91.4365 78.6631H97.8232C103.114 78.6631 107.403 74.374 107.403 69.083V1.59668H101.017Z" fill="#FFB44E"/>
<path d="M101.017 69.083V1.59668H14.3701V11.1768L11.1768 14.3701L14.3701 17.5635V107.403H69.083C74.374 107.403 78.6631 103.114 78.6631 97.8232V78.6631H91.4365C96.7275 78.6631 101.017 74.374 101.017 69.083Z" fill="#FFD06A"/>
<path d="M44.9199 11.1768H27.1436C25.38 11.1768 23.9502 12.6065 23.9502 14.3701C23.9502 16.1337 25.38 17.5635 27.1436 17.5635H44.9199C46.6807 17.5635 48.1133 18.996 48.1133 20.7568C48.1133 22.5177 46.6807 23.9502 44.9199 23.9502H11.1768C9.41594 23.9502 7.9834 22.5177 7.9834 20.7568C7.9834 18.996 9.41594 17.5635 11.1768 17.5635H14.3701V11.1768H11.1768C5.8943 11.1768 1.59668 15.4744 1.59668 20.7568C1.59668 26.0393 5.8943 30.3369 11.1768 30.3369H44.9199C50.2024 30.3369 54.5 26.0393 54.5 20.7568C54.5 15.4744 50.2024 11.1768 44.9199 11.1768Z" fill="#FF336D"/>
<path d="M60.8867 56.0967C61.7685 56.0967 62.4834 55.3818 62.4834 54.5C62.4834 53.6182 61.7685 52.9033 60.8867 52.9033C60.0049 52.9033 59.29 53.6182 59.29 54.5C59.29 55.3818 60.0049 56.0967 60.8867 56.0967Z" fill="black"/>
<path d="M67.2734 56.0967C68.1553 56.0967 68.8701 55.3818 68.8701 54.5C68.8701 53.6182 68.1553 52.9033 67.2734 52.9033C66.3916 52.9033 65.6768 53.6182 65.6768 54.5C65.6768 55.3818 66.3916 56.0967 67.2734 56.0967Z" fill="black"/>
<path d="M54.5 56.0967C55.3818 56.0967 56.0967 55.3818 56.0967 54.5C56.0967 53.6182 55.3818 52.9033 54.5 52.9033C53.6182 52.9033 52.9033 53.6182 52.9033 54.5C52.9033 55.3818 53.6182 56.0967 54.5 56.0967Z" fill="black"/>
<path d="M109 1.59668C109 0.714887 108.285 0 107.403 0H14.3701C13.4881 0 12.7734 0.714887 12.7734 1.59668V9.58008H11.1768C5.014 9.58008 0 14.5939 0 20.7568C0 26.9198 5.014 31.9336 11.1768 31.9336H44.9199C51.0827 31.9336 56.0967 26.9198 56.0967 20.7568C56.0967 14.5939 51.0827 9.58008 44.9199 9.58008H27.1436C24.5024 9.58008 22.3535 11.7288 22.3535 14.3701C22.3535 17.0115 24.5024 19.1602 27.1436 19.1602H44.9199C45.8004 19.1602 46.5166 19.8763 46.5166 20.7568C46.5166 21.6374 45.8004 22.3535 44.9199 22.3535H15.9668V3.19336H105.807V69.083C105.807 73.4852 102.225 77.0664 97.8232 77.0664H78.6631C77.7811 77.0664 77.0664 77.7813 77.0664 78.6631V97.8232C77.0664 102.225 73.4852 105.807 69.083 105.807H15.9668V36.7236C15.9668 35.8418 15.2521 35.127 14.3701 35.127C13.4881 35.127 12.7734 35.8418 12.7734 36.7236V107.403C12.7734 108.285 13.4881 109 14.3701 109H69.083C72.1644 109 74.9586 107.746 76.9825 105.723C76.9861 105.726 105.726 76.9861 105.726 76.9861C107.746 74.9586 109 72.1644 109 69.083V1.59668ZM49.71 20.7568C49.71 18.1155 47.561 15.9668 44.9199 15.9668H27.1436C26.263 15.9668 25.5469 15.2506 25.5469 14.3701C25.5469 13.4896 26.263 12.7734 27.1436 12.7734H44.9199C49.3221 12.7734 52.9033 16.3547 52.9033 20.7568C52.9033 25.159 49.3221 28.7402 44.9199 28.7402H11.1768C6.77461 28.7402 3.19336 25.159 3.19336 20.7568C3.19336 16.3547 6.77461 12.7734 11.1768 12.7734H12.7734V15.9668H11.1768C8.53564 15.9668 6.38672 18.1155 6.38672 20.7568C6.38672 23.3982 8.53564 25.5469 11.1768 25.5469H44.9199C47.561 25.5469 49.71 23.3982 49.71 20.7568ZM11.1768 22.3535C10.2962 22.3535 9.58008 21.6374 9.58008 20.7568C9.58008 19.8763 10.2962 19.1602 11.1768 19.1602H12.7734V22.3535H11.1768ZM80.2598 97.8232V80.2598H97.8232C97.8622 80.2598 97.9005 80.2572 97.9395 80.2568L80.2568 97.9395C80.2572 97.9005 80.2598 97.8622 80.2598 97.8232Z" fill="black"/>
</svg>
