<svg width="404" height="114" viewBox="0 0 404 114" fill="none" xmlns="http://www.w3.org/2000/svg">
<rect width="244" height="106" rx="5" fill="#9AA8BE"/>
<path d="M10 13C10 10.2386 12.2386 8 15 8H249C251.761 8 254 10.2386 254 13V109C254 111.761 251.761 114 249 114H15C12.2386 114 10 111.761 10 109V13Z" fill="#5B7397"/>
<line x1="45" y1="43.5" x2="216" y2="43.5" stroke="white" stroke-width="3"/>
<line x1="45" y1="57.5" x2="216" y2="57.5" stroke="white" stroke-width="3"/>
<line x1="45" y1="71.5" x2="141" y2="71.5" stroke="white" stroke-width="3"/>
<g clip-path="url(#clip0)">
<path d="M365.859 7.76367L366.587 4.05698C366.867 2.62992 368.124 1.55273 369.633 1.55273C371.142 1.55273 372.399 2.62992 372.679 4.05698L373.406 7.76367L369.633 11.9043L365.859 7.76367Z" fill="#4E4CD3"/>
<path d="M363.422 20.1855L365.859 7.76367H373.406L375.844 20.1855L369.633 26.3965L363.422 20.1855Z" fill="#FFE7B5"/>
<path d="M369.633 20.1855H375.844V53H369.633H365.492L369.633 20.1855Z" fill="#FFB44E"/>
<path d="M363.422 20.1855H369.633V53H363.422V20.1855Z" fill="#FFD06A"/>
<path d="M347.226 7.76367L347.954 4.05698C348.234 2.62992 349.491 1.55273 351 1.55273C352.509 1.55273 353.766 2.62992 354.046 4.05698L354.773 7.76367L351 11.9043L347.226 7.76367Z" fill="#4E4CD3"/>
<path d="M344.789 20.1855L347.226 7.76367H354.774L357.211 20.1855L351 26.3965L344.789 20.1855Z" fill="#FFE7B5"/>
<path d="M351 20.1855H357.211V53H351H346.859L351 20.1855Z" fill="#FFB44E"/>
<path d="M344.789 20.1855H351V53H344.789V20.1855Z" fill="#FFD06A"/>
<path d="M326.156 7.76367V13.9746L332.367 20.1855L338.578 13.9746V7.76367C338.578 4.33337 335.797 1.55273 332.367 1.55273C328.937 1.55273 326.156 4.33337 326.156 7.76367Z" fill="#FF336D"/>
<path d="M326.156 20.1855L332.367 26.3965L338.578 20.1855V13.9746H326.156V20.1855Z" fill="white"/>
<path d="M332.367 53H338.578V20.1855H332.367L328.227 53H332.367Z" fill="#FFB44E"/>
<path d="M326.156 20.1855H332.367V53H326.156V20.1855Z" fill="#FFD06A"/>
<path d="M375.844 40.5781L366.822 104.447H373.033C376.346 104.447 379.075 101.847 379.237 98.538L382.055 40.5781H375.844Z" fill="#4E4CD3"/>
<path d="M373.026 98.538L375.844 40.5781H319.945L322.763 98.538C322.924 101.847 325.654 104.447 328.967 104.447H366.822C370.135 104.447 372.865 101.847 373.026 98.538Z" fill="#666DDC"/>
<path d="M383.179 39.5072C382.886 39.1995 382.48 39.0254 382.055 39.0254H377.396V20.1855C377.396 20.0853 377.387 19.9849 377.367 19.8866L374.203 3.75824C373.775 1.58048 371.853 0 369.633 0C367.412 0 365.491 1.58048 365.063 3.75803L361.898 19.8866C361.879 19.9851 361.869 20.0853 361.869 20.1855V39.0254H358.764V20.1855C358.764 20.0853 358.754 19.9849 358.735 19.8866L355.57 3.75803C355.142 1.58048 353.221 0 351 0C348.779 0 346.858 1.58048 346.43 3.75782L343.265 19.8866C343.246 19.9851 343.236 20.0853 343.236 20.1855V34.3672C343.236 35.2249 343.932 35.9199 344.789 35.9199C345.647 35.9199 346.342 35.2249 346.342 34.3672V21.7383H349.447V39.0254H340.131V7.76367C340.131 3.48268 336.648 0 332.367 0C328.086 0 324.604 3.48268 324.604 7.76367V39.0254H319.945C319.52 39.0254 319.114 39.1995 318.821 39.5072C318.528 39.8148 318.374 40.2291 318.394 40.6535L321.212 98.6133C321.414 102.755 324.82 106 328.967 106H373.033C377.18 106 380.586 102.755 380.788 98.6133L383.606 40.6535C383.626 40.2291 383.472 39.8148 383.179 39.5072ZM371.186 39.0254V21.7383H374.291V39.0254H371.186ZM373.957 18.6328H365.309L367.137 9.31641H372.128L373.957 18.6328ZM369.633 3.10547C370.373 3.10547 371.013 3.63154 371.155 4.35614L371.519 6.21094H367.747L368.111 4.35614C368.253 3.63154 368.893 3.10547 369.633 3.10547ZM364.975 21.7383H368.08V39.0254H364.975V21.7383ZM355.324 18.6328H346.676L348.504 9.31641H353.496L355.324 18.6328ZM351 3.10547C351.74 3.10547 352.38 3.63133 352.522 4.35594L352.886 6.21094H349.114L349.477 4.35594C349.62 3.63133 350.26 3.10547 351 3.10547ZM352.553 21.7383H355.658V39.0254H352.553V21.7383ZM333.92 39.0254V21.7383H337.025V39.0254H333.92ZM337.025 18.6328H327.709V15.5273H337.025V18.6328ZM332.367 3.10547C334.936 3.10547 337.025 5.19524 337.025 7.76367V12.4219H327.709V7.76367C327.709 5.19524 329.799 3.10547 332.367 3.10547ZM327.709 21.7383H330.814V39.0254H327.709V21.7383ZM377.685 98.4626C377.565 100.948 375.521 102.895 373.033 102.895H328.967C326.479 102.895 324.435 100.948 324.314 98.4626L321.575 42.1309H380.425L377.685 98.4626Z" fill="black"/>
</g>
<defs>
<clipPath id="clip0">
<rect width="106" height="106" fill="white" transform="translate(298)"/>
</clipPath>
</defs>
</svg>
