<svg width="398" height="114" viewBox="0 0 398 114" fill="none" xmlns="http://www.w3.org/2000/svg">
<rect width="244" height="106" rx="5" fill="#FFA500"/>
<path d="M10 13C10 10.2386 12.2386 8 15 8H249C251.761 8 254 10.2386 254 13V109C254 111.761 251.761 114 249 114H15C12.2386 114 10 111.761 10 109V13Z" fill="#EE7600"/>
<line x1="43" y1="44.5" x2="214" y2="44.5" stroke="white" stroke-width="3"/>
<line x1="43" y1="58.5" x2="214" y2="58.5" stroke="white" stroke-width="3"/>
<line x1="43" y1="72.5" x2="139" y2="72.5" stroke="white" stroke-width="3"/>
<path d="M396.452 63.5869C396.572 62.2404 396.638 60.8779 396.638 59.5C396.638 58.1221 396.572 56.7596 396.452 55.4131L390.814 54.0508C390.359 50.739 389.496 47.5579 388.277 44.559L392.472 40.5636C391.904 39.337 391.279 38.1246 390.59 36.9312C389.901 35.7378 389.163 34.5906 388.386 33.4849L382.821 35.1244C380.801 32.5327 378.467 30.1985 375.875 28.1786L377.515 22.6143C376.409 21.8363 375.262 21.0986 374.069 20.4097C372.875 19.7207 371.663 19.0959 370.436 18.5273L366.441 22.7231C363.442 21.5035 360.261 20.6404 356.949 20.1855V22.9102C373.212 25.3821 385.739 40.8205 385.739 59.5C385.739 78.1796 373.212 93.618 356.949 96.0897V98.8143C360.261 98.3595 363.442 97.4963 366.441 96.2768L370.436 100.473C371.663 99.904 372.875 99.2793 374.069 98.5902C375.262 97.9012 376.409 97.1634 377.515 96.3856L375.876 90.8212C378.467 88.8014 380.802 86.4671 382.821 83.8755L388.386 85.515C389.164 84.4093 389.901 83.2621 390.59 82.0687C391.279 80.8753 391.904 79.6629 392.473 78.4362L388.277 74.4409C389.496 71.4422 390.36 68.2609 390.814 64.9491L396.452 63.5869Z" fill="#95B0ED"/>
<path d="M385.739 59.5C385.739 39.4294 373.212 22.8415 356.949 20.1855L355.587 14.5483C354.24 14.4275 352.878 14.3623 351.5 14.3623C350.122 14.3623 348.76 14.4275 347.413 14.5485L346.051 20.1855C342.739 20.6403 339.558 21.5035 336.559 22.723L332.564 18.5273C331.337 19.0959 330.125 19.7207 328.931 20.4097C327.738 21.0986 326.591 21.8365 325.485 22.6142L327.124 28.1786C324.533 30.1985 322.198 32.5327 320.179 35.1244L314.614 33.4849C313.836 34.5905 313.099 35.7378 312.41 36.9312C311.721 38.1245 311.096 39.337 310.527 40.5636L314.723 44.559C313.504 47.5577 312.64 50.7389 312.186 54.0508L306.548 55.4131C306.428 56.7596 306.362 58.1221 306.362 59.5C306.362 60.8779 306.428 62.2404 306.548 63.5869L312.186 64.9492C312.641 68.2611 313.504 71.4421 314.723 74.441L310.527 78.4364C311.096 79.663 311.721 80.8755 312.41 82.0688C313.099 83.2622 313.836 84.4095 314.614 85.5151L320.179 83.8756C322.198 86.4673 324.533 88.8015 327.124 90.8214L325.485 96.3858C326.591 97.1637 327.738 97.9014 328.931 98.5903C330.125 99.2793 331.337 99.904 332.564 100.473L336.559 96.277C339.558 97.4965 342.739 98.3596 346.051 98.8145L347.413 104.452C348.76 104.572 350.122 104.638 351.5 104.638C352.878 104.638 354.24 104.573 355.587 104.452L356.949 98.8145C373.212 96.1585 385.739 79.5706 385.739 59.5ZM351.5 91.0146C334.095 91.0146 319.985 76.905 319.985 59.5C319.985 42.095 334.095 27.9854 351.5 27.9854C368.905 27.9854 383.015 42.095 383.015 59.5C383.015 76.905 368.905 91.0146 351.5 91.0146Z" fill="#ACD2F6"/>
<path d="M351.5 93.7393C370.41 93.7393 385.739 78.4098 385.739 59.5C385.739 40.5902 370.41 25.2607 351.5 25.2607C332.59 25.2607 317.261 40.5902 317.261 59.5C317.261 78.4098 332.59 93.7393 351.5 93.7393Z" fill="white"/>
<path d="M322.71 59.5L330.884 54.0508L339.058 59.5C339.058 62.9359 340.45 66.0465 342.702 68.2981L331.142 79.8577C325.932 74.6477 322.71 67.4502 322.71 59.5Z" fill="#FFE7B5"/>
<path d="M322.71 59.5H339.058C339.058 56.0641 340.45 52.9535 342.702 50.7019V39.1423H331.142C325.932 44.3523 322.71 51.5498 322.71 59.5Z" fill="#FFB44E"/>
<path d="M380.29 59.5C380.29 67.4502 377.068 74.6477 371.858 79.8575L369.63 77.6303L372.116 54.0508L380.29 59.5Z" fill="#FF0787"/>
<path d="M369.63 77.6303L360.298 68.2981C362.55 66.0465 363.942 62.9359 363.942 59.5L372.116 54.0508L374.841 59.5C374.841 66.372 372.888 72.6806 369.63 77.6303Z" fill="#FF336D"/>
<path d="M380.29 59.5C380.29 51.5498 377.068 44.3523 371.858 39.1425H360.298L374.841 59.5H380.29Z" fill="#FF336D"/>
<path d="M369.63 41.3697L360.298 39.1425V50.7021C362.55 52.9535 363.942 56.0641 363.942 59.5H374.841C374.841 52.628 372.888 46.3194 369.63 41.3697Z" fill="#FF545A"/>
<path d="M351.5 30.71L369.63 41.3697L371.858 39.1424C366.648 33.9324 359.45 30.71 351.5 30.71Z" fill="#FF545A"/>
<path d="M351.5 30.71L346.051 38.8838L351.5 47.0576C354.936 47.0576 358.047 48.4503 360.298 50.7019L369.63 41.3697C365.351 34.8668 358.819 30.71 351.5 30.71Z" fill="#FF7647"/>
<path d="M331.142 39.1424L342.702 50.7021C344.954 48.4503 348.064 47.0576 351.5 47.0576V30.71C343.55 30.71 336.352 33.9324 331.142 39.1424Z" fill="#FF9733"/>
<path d="M351.5 36.1592C349.995 36.1592 348.775 37.3791 348.775 38.8838V71.9424C348.775 73.4471 349.995 74.667 351.5 74.667C353.005 74.667 354.225 73.4471 354.225 71.9424V38.8838C354.225 37.3791 353.005 36.1592 351.5 36.1592Z" fill="#4E4CD3"/>
<path d="M351.5 64.9492C354.51 64.9492 356.949 62.5095 356.949 59.5C356.949 56.4905 354.51 54.0508 351.5 54.0508C348.49 54.0508 346.051 56.4905 346.051 59.5C346.051 62.5095 348.49 64.9492 351.5 64.9492Z" fill="#ACD2F6"/>
<path d="M351.5 60.8623C352.252 60.8623 352.862 60.2524 352.862 59.5C352.862 58.7476 352.252 58.1377 351.5 58.1377C350.748 58.1377 350.138 58.7476 350.138 59.5C350.138 60.2524 350.748 60.8623 351.5 60.8623Z" fill="black"/>
<path d="M397.808 55.2912C397.756 54.7098 397.339 54.2261 396.772 54.0889L392.027 52.9422C391.586 50.1989 390.866 47.5059 389.88 44.9135L393.412 41.5503C393.835 41.1476 393.954 40.5204 393.709 39.9907C393.111 38.7009 392.459 37.4425 391.77 36.25C391.082 35.0581 390.318 33.8641 389.5 32.7011C389.164 32.2234 388.561 32.0136 388.001 32.1782L383.315 33.5588C381.56 31.4096 379.591 29.4396 377.442 27.6851L378.822 22.9993C378.987 22.4391 378.777 21.8361 378.299 21.5001C377.136 20.6818 375.942 19.918 374.75 19.2299C373.558 18.5419 372.3 17.8896 371.01 17.2914C370.48 17.0457 369.853 17.1654 369.45 17.5879L366.087 21.1199C363.494 20.1343 360.801 19.4143 358.058 18.9736L356.911 14.2284C356.774 13.6608 356.29 13.2438 355.709 13.1916C354.292 13.0643 352.876 13 351.5 13C350.124 13 348.708 13.0643 347.291 13.1916C346.71 13.2438 346.226 13.6608 346.089 14.2284L344.942 18.9736C342.199 19.4145 339.506 20.1345 336.914 21.1199L333.55 17.5879C333.148 17.1648 332.52 17.046 331.991 17.2914C330.7 17.8896 329.442 18.5419 328.25 19.2299C327.058 19.918 325.864 20.6818 324.701 21.5001C324.223 21.8361 324.013 22.4391 324.178 22.9993L325.559 27.6851C323.409 29.4396 321.44 31.4096 319.685 33.5588L314.999 32.1782C314.439 32.0136 313.836 32.2234 313.5 32.7011C312.682 33.8634 311.919 35.0575 311.23 36.25C310.542 37.4416 309.89 38.7 309.292 39.9907C309.046 40.5204 309.165 41.1476 309.588 41.5503L313.12 44.9135C312.134 47.5059 311.414 50.1991 310.974 52.9422L306.228 54.0889C305.661 54.2261 305.244 54.7098 305.192 55.2912C305.064 56.7076 305 58.1235 305 59.5C305 60.8765 305.064 62.2924 305.192 63.7088C305.244 64.2902 305.661 64.7739 306.228 64.9111L310.974 66.0578C311.414 68.8011 312.134 71.4941 313.12 74.0865L309.588 77.4497C309.165 77.8524 309.046 78.4796 309.291 79.0093C309.89 80.2999 310.542 81.5584 311.23 82.7502C311.918 83.9425 312.682 85.1366 313.5 86.2989C313.836 86.7764 314.439 86.986 314.999 86.8218L319.685 85.4412C321.44 87.5904 323.409 89.5604 325.558 91.3149L324.178 96.0007C324.013 96.5609 324.223 97.1639 324.701 97.4999C325.864 98.3182 327.058 99.082 328.25 99.7701C329.442 100.458 330.7 101.11 331.99 101.709C332.52 101.954 333.147 101.835 333.55 101.412L336.913 97.8801C339.506 98.8657 342.199 99.5857 344.942 100.026L346.089 104.772C346.226 105.339 346.709 105.756 347.291 105.808C348.708 105.936 350.124 106 351.5 106C352.876 106 354.292 105.936 355.708 105.808C356.29 105.756 356.774 105.339 356.911 104.772L358.057 100.026C360.8 99.5855 363.493 98.8655 366.086 97.8801L369.449 101.412C369.852 101.835 370.479 101.954 371.009 101.709C372.299 101.11 373.558 100.458 374.749 99.7701C375.941 99.082 377.135 98.3182 378.299 97.4999C378.776 97.1639 378.987 96.5609 378.821 96.0007L377.441 91.3149C379.59 89.5604 381.56 87.5904 383.314 85.4412L388 86.8218C388.561 86.9869 389.163 86.7768 389.499 86.2989C390.318 85.1358 391.081 83.9417 391.77 82.75C392.458 81.5577 393.11 80.2991 393.708 79.0093C393.954 78.4796 393.834 77.8524 393.411 77.4497L389.88 74.0865C390.865 71.4941 391.585 68.8009 392.026 66.0578L396.771 64.9111C397.338 64.7739 397.756 64.2902 397.808 63.7088C397.935 62.2924 397.999 60.8765 397.999 59.5C397.999 58.1235 397.936 56.7076 397.808 55.2912ZM395.171 62.4947L390.494 63.6251C389.95 63.7567 389.541 64.2087 389.465 64.7639C389.033 67.91 388.208 70.9933 387.015 73.9279C386.804 74.4465 386.932 75.0415 387.338 75.4277L390.818 78.7421C390.373 79.6508 389.902 80.5376 389.411 81.3877C388.92 82.2376 388.388 83.0891 387.823 83.929L383.206 82.5689C382.67 82.4109 382.091 82.5967 381.747 83.0383C379.797 85.5398 377.54 87.7971 375.038 89.7468C374.597 90.091 374.411 90.6697 374.569 91.2065L375.929 95.8234C375.089 96.3879 374.238 96.92 373.388 97.4106C372.538 97.9012 371.651 98.3729 370.742 98.8181L367.428 95.3375C367.041 94.9321 366.446 94.8038 365.928 95.0151C362.993 96.2085 359.909 97.0328 356.764 97.4647C356.208 97.541 355.757 97.9497 355.625 98.4944L354.495 103.171C353.485 103.241 352.481 103.275 351.5 103.275C350.519 103.275 349.515 103.241 348.505 103.171L347.375 98.4944C347.243 97.9497 346.792 97.541 346.236 97.4647C343.09 97.0328 340.007 96.2085 337.072 95.0151C336.554 94.8042 335.959 94.9323 335.572 95.3375L332.258 98.8181C331.349 98.3729 330.462 97.9012 329.612 97.4106C328.762 96.92 327.911 96.3879 327.071 95.8234L328.431 91.2065C328.589 90.6697 328.403 90.0908 327.962 89.7468C325.46 87.7972 323.203 85.54 321.253 83.0383C320.909 82.5969 320.33 82.4112 319.793 82.5689L315.176 83.929C314.612 83.0895 314.08 82.2378 313.589 81.3877C313.098 80.538 312.627 79.6512 312.182 78.7421L315.662 75.4277C316.068 75.0415 316.196 74.4467 315.985 73.9279C314.791 70.9933 313.967 67.91 313.535 64.7639C313.458 64.2087 313.05 63.7567 312.505 63.6251L307.828 62.4947C307.759 61.4851 307.725 60.4814 307.725 59.5C307.725 58.5186 307.759 57.5149 307.829 56.5053L312.506 55.3749C313.05 55.2433 313.459 54.7913 313.535 54.2361C313.967 51.09 314.792 48.0067 315.985 45.0721C316.196 44.5535 316.068 43.9585 315.662 43.5723L312.182 40.2579C312.627 39.3486 313.099 38.462 313.589 37.6125C314.08 36.762 314.612 35.9105 315.177 35.071L319.794 36.4311C320.33 36.5888 320.909 36.4031 321.253 35.9617C323.203 33.4602 325.46 31.2029 327.962 29.2532C328.403 28.909 328.589 28.3303 328.431 27.7935L327.071 23.1766C327.911 22.6121 328.763 22.08 329.612 21.5894C330.462 21.0988 331.349 20.6271 332.258 20.1819L335.573 23.6625C335.959 24.0679 336.554 24.1956 337.072 23.9849C340.007 22.7915 343.091 21.9672 346.236 21.5353C346.792 21.459 347.244 21.0503 347.375 20.5056L348.506 15.8285C349.515 15.7595 350.519 15.7246 351.5 15.7246C352.481 15.7246 353.485 15.7595 354.495 15.8285L355.625 20.5056C355.757 21.0503 356.208 21.459 356.764 21.5353C359.91 21.9672 362.993 22.7915 365.928 23.9849C366.447 24.1956 367.042 24.0679 367.428 23.6625L370.742 20.1819C371.651 20.6271 372.538 21.0988 373.388 21.5894C374.238 22.08 375.089 22.6121 375.929 23.1766L374.569 27.7935C374.411 28.3303 374.597 28.9092 375.038 29.2532C377.54 31.2028 379.797 33.46 381.747 35.9617C382.091 36.4031 382.669 36.5888 383.207 36.4311L387.824 35.071C388.388 35.9109 388.92 36.7626 389.411 37.6123C389.902 38.4626 390.373 39.3493 390.818 40.2579L387.338 43.5723C386.932 43.9585 386.804 44.5533 387.015 45.0721C388.209 48.0067 389.033 51.09 389.465 54.2361C389.541 54.7913 389.95 55.2433 390.495 55.3749L395.172 56.5053C395.241 57.5149 395.275 58.5186 395.275 59.5C395.275 60.4814 395.241 61.4851 395.171 62.4947Z" fill="black"/>
<path d="M351.5 23.8984C331.869 23.8984 315.898 39.8692 315.898 59.5C315.898 79.1308 331.869 95.1016 351.5 95.1016C371.131 95.1016 387.102 79.1308 387.102 59.5C387.102 39.8692 371.131 23.8984 351.5 23.8984ZM351.5 92.377C333.372 92.377 318.623 77.6285 318.623 59.5C318.623 41.3715 333.372 26.623 351.5 26.623C369.628 26.623 384.377 41.3715 384.377 59.5C384.377 77.6285 369.628 92.377 351.5 92.377Z" fill="black"/>
<path d="M351.5 29.3477C337.056 29.3477 324.603 39.6291 321.889 53.7945C321.748 54.5334 322.232 55.2472 322.971 55.3887C323.709 55.5284 324.423 55.046 324.565 54.3071C325.536 49.2369 327.881 44.7146 331.166 41.0933L340.825 50.7515C340.808 50.772 340.79 50.7916 340.773 50.8121C339.075 52.9048 338.03 55.4652 337.763 58.1375H322.71C321.958 58.1375 321.348 58.7473 321.348 59.4998C321.348 67.5539 324.484 75.1256 330.179 80.8208C330.445 81.0867 330.794 81.2197 331.142 81.2197C331.491 81.2197 331.84 81.0867 332.106 80.8208L343.665 69.2612C343.921 69.0056 344.064 68.6592 344.064 68.2978C344.064 67.9363 343.921 67.5899 343.665 67.3343C341.572 65.242 340.42 62.4597 340.42 59.5C340.42 54.9441 343.276 50.8588 347.413 49.2059V54.0546C345.76 55.2985 344.688 57.2764 344.688 59.5C344.688 61.7236 345.76 63.7015 347.413 64.9454V71.9424C347.413 74.1958 349.246 76.0293 351.5 76.0293C353.754 76.0293 355.587 74.1958 355.587 71.9424V64.9454C357.24 63.7015 358.312 61.7236 358.312 59.5C358.312 57.2764 357.24 55.2985 355.587 54.0546V49.2059C359.724 50.8588 362.58 54.9443 362.58 59.5C362.58 62.4597 361.428 65.242 359.335 67.3347C359.079 67.5901 358.936 67.9367 358.936 68.2981C358.936 68.6596 359.079 69.0058 359.335 69.2615L370.894 80.8212C371.16 81.0871 371.509 81.22 371.858 81.22C372.206 81.22 372.555 81.0871 372.821 80.8212C378.516 75.1258 381.652 67.5541 381.652 59.5C381.652 42.8739 368.126 29.3477 351.5 29.3477ZM340.822 68.2513L331.166 77.9075C326.886 73.1903 324.414 67.2241 324.105 60.8621H337.761C338.026 63.5851 339.084 66.139 340.822 68.2513ZM342.754 48.827L333.095 39.1682C337.683 35.021 343.655 32.4274 350.138 32.107V35.0312C348.552 35.5936 347.413 37.1079 347.413 38.8838V46.3162C345.715 46.8438 344.13 47.701 342.754 48.827ZM352.862 71.9424C352.862 72.6936 352.251 73.3047 351.5 73.3047C350.749 73.3047 350.138 72.6936 350.138 71.9424V66.1744C350.578 66.2641 351.034 66.3115 351.5 66.3115C351.966 66.3115 352.422 66.2641 352.862 66.1744V71.9424ZM351.5 63.5869C349.246 63.5869 347.413 61.7534 347.413 59.5C347.413 57.2466 349.246 55.4131 351.5 55.4131C353.754 55.4131 355.587 57.2466 355.587 59.5C355.587 61.7534 353.754 63.5869 351.5 63.5869ZM351.5 52.6885C351.034 52.6885 350.578 52.7359 350.138 52.8256V38.8838C350.138 38.1325 350.749 37.5215 351.5 37.5215C352.251 37.5215 352.862 38.1325 352.862 38.8838V47.3366V52.8256C352.422 52.7359 351.966 52.6885 351.5 52.6885ZM355.587 46.3162V38.8838C355.587 37.1079 354.448 35.5936 352.862 35.0312V32.1062C359.4 32.4276 365.343 35.0486 369.898 39.1755L360.246 48.827C358.87 47.701 357.285 46.8438 355.587 46.3162ZM362.227 50.8123C362.21 50.7916 362.192 50.7722 362.175 50.7516L371.824 41.1023C375.951 45.6572 378.572 51.6003 378.894 58.1379H365.234C364.967 55.4656 363.925 52.905 362.227 50.8123ZM365.236 60.8623H378.894C378.585 67.2243 376.114 73.1903 371.834 77.9076L362.178 68.2514C363.916 66.1388 364.971 63.5851 365.236 60.8623Z" fill="black"/>
</svg>
